<svg width="66" height="72" viewBox="0 0 66 72" fill="none" xmlns="http://www.w3.org/2000/svg">
<path d="M23.8333 60.2987C22.7455 60.2987 21.6822 60.6261 20.7777 61.2395C19.8732 61.853 19.1683 62.7249 18.752 63.745C18.3357 64.7651 18.2268 65.8876 18.439 66.9705C18.6512 68.0534 19.1751 69.0482 19.9442 69.8289C20.7134 70.6097 21.6934 71.1414 22.7603 71.3568C23.8272 71.5722 24.9331 71.4617 25.9381 71.0391C26.9431 70.6166 27.8021 69.901 28.4064 68.9829C29.0108 68.0649 29.3333 66.9855 29.3333 65.8814C29.3333 64.4007 28.7539 62.9808 27.7224 61.9338C26.691 60.8868 25.292 60.2987 23.8333 60.2987ZM62.3333 49.1332H18.3333C17.3609 49.1332 16.4282 48.7411 15.7406 48.0432C15.053 47.3452 14.6667 46.3985 14.6667 45.4114C14.6667 44.4244 15.053 43.4777 15.7406 42.7797C16.4282 42.0818 17.3609 41.6896 18.3333 41.6896H49.4678C51.8563 41.6818 54.1781 40.8885 56.085 39.4286C57.992 37.9687 59.3815 35.9208 60.0453 33.5918L65.8586 12.9383C66.0145 12.3844 66.0417 11.8013 65.9379 11.2349C65.8341 10.6686 65.6023 10.1344 65.2605 9.67442C64.9188 9.21446 64.4766 8.8413 63.9686 8.5843C63.4607 8.3273 62.9009 8.19349 62.3333 8.1934H17.3766C16.6175 6.02492 15.2183 4.14671 13.3695 2.8147C11.5207 1.48268 9.31226 0.761624 7.0451 0.749786H3.66667C2.69421 0.749786 1.76157 1.1419 1.07394 1.83988C0.386308 2.53785 0 3.48451 0 4.47159C0 5.45867 0.386308 6.40533 1.07394 7.1033C1.76157 7.80128 2.69421 8.1934 3.66667 8.1934H7.0451C7.84107 8.19622 8.61472 8.46068 9.25022 8.94717C9.88571 9.43367 10.3489 10.116 10.5703 10.8921L11.1405 12.9195L11.1414 12.9383L17.1571 34.3096C14.3578 34.6153 11.7805 35.9988 9.95597 38.1752C8.13141 40.3517 7.19845 43.1554 7.3492 46.0091C7.49994 48.8627 8.72292 51.5491 10.7663 53.515C12.8097 55.481 15.5179 56.5768 18.3333 56.5769H62.3333C63.3058 56.5769 64.2384 56.1847 64.9261 55.4868C65.6137 54.7888 66 53.8421 66 52.855C66 51.868 65.6137 50.9213 64.9261 50.2233C64.2384 49.5254 63.3058 49.1332 62.3333 49.1332ZM57.4725 15.637L52.9948 31.5455C52.7736 32.3222 52.3103 33.0052 51.6744 33.4921C51.0385 33.979 50.2643 34.2435 49.4678 34.246H24.7661L23.8313 30.9254L19.5302 15.637H57.4725ZM53.1667 60.2987C52.0789 60.2987 51.0155 60.6261 50.111 61.2395C49.2066 61.853 48.5016 62.7249 48.0853 63.745C47.669 64.7651 47.5601 65.8876 47.7723 66.9705C47.9846 68.0534 48.5084 69.0482 49.2776 69.8289C50.0468 70.6097 51.0268 71.1414 52.0937 71.3568C53.1606 71.5722 54.2664 71.4617 55.2714 71.0391C56.2764 70.6166 57.1354 69.901 57.7397 68.9829C58.3441 68.0649 58.6667 66.9855 58.6667 65.8814C58.6667 64.4007 58.0872 62.9808 57.0558 61.9338C56.0243 60.8868 54.6254 60.2987 53.1667 60.2987Z" fill="#00A4FC"/>
</svg>
