<svg width="33" height="35" viewBox="0 0 33 35" fill="none" xmlns="http://www.w3.org/2000/svg">
<path d="M11.9843 28.7033C11.4526 28.7033 10.9328 28.861 10.4907 29.1564C10.0486 29.4518 9.70403 29.8717 9.50055 30.3629C9.29707 30.8542 9.24383 31.3947 9.34757 31.9162C9.4513 32.4378 9.70735 32.9168 10.0833 33.2928C10.4593 33.6688 10.9383 33.9248 11.4599 34.0285C11.9814 34.1323 12.5219 34.079 13.0132 33.8755C13.5044 33.6721 13.9243 33.3275 14.2197 32.8854C14.5151 32.4433 14.6728 31.9235 14.6728 31.3918C14.6728 30.6787 14.3895 29.9949 13.8853 29.4908C13.3812 28.9866 12.6974 28.7033 11.9843 28.7033ZM30.8034 23.3265H9.29591C8.82057 23.3265 8.36469 23.1376 8.02857 22.8015C7.69245 22.4654 7.50362 22.0095 7.50362 21.5342C7.50362 21.0588 7.69245 20.603 8.02857 20.2668C8.36469 19.9307 8.82057 19.7419 9.29591 19.7419H24.5146C25.6821 19.7381 26.817 19.3561 27.7492 18.6531C28.6813 17.95 29.3605 16.9638 29.685 15.8423L32.5265 5.8963C32.6027 5.62955 32.616 5.34875 32.5653 5.07601C32.5146 4.80326 32.4012 4.54601 32.2342 4.32452C32.0672 4.10302 31.851 3.92331 31.6027 3.79955C31.3544 3.67579 31.0808 3.61135 30.8034 3.61131H8.82825C8.45722 2.56705 7.77326 1.66257 6.86956 1.02112C5.96585 0.379667 4.88636 0.0324342 3.77816 0.0267334H2.12676C1.65142 0.0267334 1.19554 0.215563 0.859421 0.551682C0.523302 0.887801 0.334473 1.34368 0.334473 1.81902C0.334473 2.29436 0.523302 2.75024 0.859421 3.08636C1.19554 3.42248 1.65142 3.61131 2.12676 3.61131H3.77816C4.16723 3.61267 4.5454 3.74002 4.85603 3.9743C5.16666 4.20858 5.39305 4.53718 5.5013 4.9109L5.78003 5.88723L5.78046 5.8963L8.72094 16.1879C7.35264 16.3351 6.09286 17.0014 5.20101 18.0495C4.30915 19.0976 3.85312 20.4477 3.9268 21.822C4.00049 23.1962 4.59828 24.4899 5.5971 25.4366C6.59592 26.3833 7.91971 26.911 9.29591 26.911H30.8034C31.2787 26.911 31.7346 26.7222 32.0707 26.3861C32.4068 26.05 32.5956 25.5941 32.5956 25.1188C32.5956 24.6434 32.4068 24.1875 32.0707 23.8514C31.7346 23.5153 31.2787 23.3265 30.8034 23.3265ZM28.4274 7.19588L26.2386 14.8569C26.1305 15.2309 25.904 15.5598 25.5932 15.7942C25.2824 16.0287 24.9039 16.1561 24.5146 16.1573H12.4403L11.9834 14.5582L9.88095 7.19588H28.4274ZM26.3226 28.7033C25.7909 28.7033 25.2711 28.861 24.829 29.1564C24.3869 29.4518 24.0423 29.8717 23.8389 30.3629C23.6354 30.8542 23.5821 31.3947 23.6859 31.9162C23.7896 32.4378 24.0456 32.9168 24.4216 33.2928C24.7976 33.6688 25.2766 33.9248 25.7982 34.0285C26.3197 34.1323 26.8602 34.079 27.3515 33.8755C27.8427 33.6721 28.2626 33.3275 28.558 32.8854C28.8534 32.4433 29.0111 31.9235 29.0111 31.3918C29.0111 30.6787 28.7278 29.9949 28.2236 29.4908C27.7195 28.9866 27.0357 28.7033 26.3226 28.7033Z" fill="black"/>
</svg>
