<svg width="226" height="226" viewBox="0 0 226 226" fill="none" xmlns="http://www.w3.org/2000/svg">
<path d="M188.442 89.3149C188.442 86.5857 187.564 84.3439 185.81 82.5894L172.505 69.4309C170.653 67.579 168.46 66.653 165.926 66.653C163.392 66.653 161.199 67.579 159.347 69.4309L99.6949 128.937L66.6525 95.8941C64.8006 94.0422 62.6075 93.1162 60.0732 93.1162C57.539 93.1162 55.3459 94.0422 53.494 95.8941L40.1893 109.053C38.4349 110.807 37.5576 113.049 37.5576 115.778C37.5576 118.41 38.4349 120.603 40.1893 122.357L93.1157 175.284C94.9676 177.136 97.1607 178.062 99.6949 178.062C102.327 178.062 104.568 177.136 106.42 175.284L185.81 95.8941C187.564 94.1396 188.442 91.9466 188.442 89.3149ZM225.285 113C225.285 133.371 220.266 152.159 210.226 169.362C200.187 186.566 186.565 200.187 169.362 210.227C152.158 220.266 133.371 225.286 113 225.286C92.6283 225.286 73.8409 220.266 56.6374 210.227C39.4339 200.187 25.8125 186.566 15.773 169.362C5.73358 152.159 0.713867 133.371 0.713867 113C0.713867 92.6289 5.73358 73.8415 15.773 56.638C25.8125 39.4345 39.4339 25.813 56.6374 15.7736C73.8409 5.73413 92.6283 0.714409 113 0.714409C133.371 0.714409 152.158 5.73413 169.362 15.7736C186.565 25.813 200.187 39.4345 210.226 56.638C220.266 73.8415 225.285 92.6289 225.285 113Z" fill="#F26722"/>
</svg>
