<svg width="46" height="45" viewBox="0 0 46 45" fill="none" xmlns="http://www.w3.org/2000/svg">
<g clip-path="url(#clip0_172_13566)">
<path d="M38.0092 35.0615C40.1709 37.2232 40.1709 40.728 38.0092 42.8898C35.8474 45.0515 32.3426 45.0515 30.1809 42.8898C28.0191 40.7281 28.0191 37.2232 30.1809 35.0615C32.3426 32.8998 35.8474 32.8998 38.0092 35.0615Z" fill="#ECF8FF"/>
<path d="M21.4037 35.0615C23.5654 37.2232 23.5654 40.728 21.4037 42.8898C19.242 45.0515 15.7371 45.0515 13.5754 42.8898C11.4137 40.7281 11.4137 37.2232 13.5754 35.0615C15.7371 32.8998 19.242 32.8998 21.4037 35.0615Z" fill="#ECF8FF"/>
<path d="M44.6082 6.86377C44.0852 6.17049 43.2675 5.76236 42.3986 5.76236H34.0954V11.2978H38.7295L34.7752 25.1364H14.2984L10.532 2.53922C10.3104 1.20536 9.15488 0.226929 7.80211 0.226929H0.882812V5.76236H5.45738L9.2238 28.3595C9.44543 29.6934 10.6009 30.6718 11.9537 30.6718H36.8631C38.0983 30.6718 39.1849 29.8529 39.5241 28.665L45.0595 9.29093C45.2987 8.45575 45.1312 7.55705 44.6082 6.86377Z" fill="#ECF8FF"/>
<path d="M32.7118 4.37847L28.6792 0.345825L21.7599 7.26512L18.8733 4.37847L14.7217 8.53005L21.641 15.4493L32.7118 4.37847Z" fill="#ECF8FF"/>
</g>
<defs>
<clipPath id="clip0_172_13566">
<rect width="44.2835" height="44.2835" fill="white" transform="translate(0.882812 0.226929)"/>
</clipPath>
</defs>
</svg>
