<svg width="45" height="45" viewBox="0 0 45 45" fill="none" xmlns="http://www.w3.org/2000/svg">
<path d="M24.0597 4.84979L22.1476 6.7619L17.5843 11.3252L12.0413 16.8682L7.27607 21.6334C6.50264 22.4068 5.74209 23.1889 4.95576 23.9537L4.92139 23.9881V20.9502L6.8335 22.8623L11.3968 27.4256L16.9397 32.9685L21.705 37.7338C22.4784 38.5072 23.2604 39.2721 24.0253 40.0541L24.0597 40.0885C24.4507 40.4795 24.687 41.0553 24.687 41.6096C24.687 42.1381 24.455 42.7654 24.0597 43.1306C23.6515 43.5045 23.1144 43.7838 22.5386 43.758C21.9671 43.7322 21.43 43.5389 21.0175 43.1306L19.1054 41.2185L14.5421 36.6553L8.99912 31.1123L4.23389 26.3471C3.46045 25.5736 2.67842 24.8088 1.91357 24.0267L1.8792 23.9924C1.0585 23.1717 1.0585 21.7752 1.8792 20.9545C2.51943 20.3099 3.15967 19.674 3.79561 19.0338L8.35889 14.4705L13.9019 8.92752L18.6671 4.16229C19.4405 3.38885 20.2054 2.60682 20.9874 1.84198L21.0218 1.8076C21.4128 1.41659 21.9886 1.18026 22.5429 1.18026C23.0714 1.18026 23.6987 1.41229 24.064 1.8076C24.4378 2.21581 24.7171 2.75291 24.6913 3.3287C24.6612 3.90018 24.4722 4.43729 24.0597 4.84979Z" fill="#343434"/>
<path d="M3.39228 20.3185H40.0532C40.5473 20.3185 41.0458 20.3142 41.5399 20.3185H41.6044C42.1544 20.3185 42.7345 20.5592 43.1255 20.9459C43.4993 21.3197 43.7786 21.9299 43.7528 22.467C43.727 23.0213 43.5466 23.597 43.1255 23.9881C42.7044 24.3748 42.1888 24.6154 41.6044 24.6154H4.94345C4.44931 24.6154 3.95087 24.6197 3.45673 24.6154H3.39228C2.84228 24.6154 2.2622 24.3748 1.87118 23.9881C1.49735 23.6142 1.21806 23.0041 1.24384 22.467C1.26962 21.9127 1.45009 21.3369 1.87118 20.9459C2.29657 20.5634 2.8122 20.3185 3.39228 20.3185Z" fill="#343434"/>
</svg>
