<svg width="35" height="35" viewBox="0 0 35 35" fill="none" xmlns="http://www.w3.org/2000/svg">
<path fill-rule="evenodd" clip-rule="evenodd" d="M28.7261 30.6748H6.37848C5.1764 30.6748 4.28759 29.4881 4.7422 28.3966C6.84671 23.3499 11.7913 20.4588 17.5514 20.4588C23.3133 20.4588 28.2578 23.3499 30.3624 28.3966C30.817 29.4881 29.9282 30.6748 28.7261 30.6748ZM10.5994 10.2428C10.5994 6.48665 13.7187 3.43206 17.5514 3.43206C21.3859 3.43206 24.5034 6.48665 24.5034 10.2428C24.5034 13.9989 21.3859 17.0535 17.5514 17.0535C13.7187 17.0535 10.5994 13.9989 10.5994 10.2428ZM34.5033 30.055C33.2399 24.3358 29.2863 20.1148 24.0846 18.1993C26.8412 16.025 28.4485 12.5089 27.8577 8.65917C27.1732 4.19306 23.3797 0.619225 18.8029 0.0982063C12.4826 -0.622025 7.12255 4.19656 7.12255 10.2428C7.12255 13.4608 8.64474 16.3281 11.02 18.1993C5.8149 20.1148 1.86469 24.3358 0.599599 30.055C0.139877 32.134 1.85107 34.0802 4.02198 34.0802H31.0809C33.2535 34.0802 34.963 32.134 34.5033 30.055Z" fill="black"/>
</svg>
