<svg width="15" height="13" viewBox="0 0 15 13" fill="none" xmlns="http://www.w3.org/2000/svg">
<path d="M10.666 3.91139C11.1092 3.46822 11.5492 2.43417 9.70263 3.6898C7.9777 4.87694 6.24108 6.047 4.49303 7.19981C4.22684 7.32017 3.93906 7.38549 3.64699 7.39184C3.35493 7.39818 3.06459 7.34543 2.79342 7.23674C1.68551 6.90436 0.392135 6.4612 0.392135 6.4612C0.392135 6.4612 -0.490985 5.90644 1.02076 5.31555C1.02076 5.31555 7.41214 2.69268 9.62877 1.76862C10.4782 1.39931 13.3596 0.217536 13.3596 0.217536C13.3596 0.217536 14.6899 -0.300294 14.5791 0.956145C14.5421 1.47317 14.2467 3.28437 13.9512 5.24169C13.5073 8.01228 13.0272 11.0422 13.0272 11.0422C13.0272 11.0422 12.9533 11.8916 12.3255 12.0393C11.6534 12.0279 11.0041 11.7942 10.479 11.3746C10.3313 11.2638 7.70839 9.60109 6.74739 8.78862C6.64964 8.7224 6.57022 8.63253 6.51652 8.52737C6.46283 8.42221 6.43661 8.30518 6.44029 8.18716C6.44398 8.06915 6.47745 7.95398 6.5376 7.85238C6.59775 7.75077 6.68262 7.66603 6.78432 7.60604C8.10238 6.40012 9.39654 5.16833 10.666 3.91139Z" fill="#CECFD2"/>
</svg>
