<svg width="32" height="32" viewBox="0 0 32 32" fill="none" xmlns="http://www.w3.org/2000/svg">
<path d="M1.69592 6.20165V6.20165C1.78096 6.20165 1.85449 6.26019 1.87673 6.34227C2.11557 7.22341 2.60836 8.00265 3.28627 8.5673C4.00002 9.16182 4.87829 9.48457 5.78234 9.48457C6.68638 9.48457 7.56465 9.16182 8.2784 8.5673V8.5673C9.54872 7.5092 10.8908 6.20165 12.5441 6.20165H30.3008C30.5718 6.20165 30.8316 6.08632 31.0232 5.88103C31.2148 5.67575 31.3224 5.39732 31.3224 5.107C31.3224 4.81668 31.2148 4.53826 31.0232 4.33297C30.8316 4.12768 30.5718 4.01235 30.3008 4.01235H12.5441C10.8908 4.01235 9.54872 2.7048 8.2784 1.6467V1.6467C7.56465 1.05218 6.68638 0.729431 5.78234 0.729431C4.87829 0.729431 4.00002 1.05218 3.28627 1.6467C2.60836 2.21136 2.11557 2.99059 1.87673 3.87174C1.85449 3.95381 1.78096 4.01235 1.69592 4.01235V4.01235C1.42497 4.01235 1.16513 4.12768 0.973537 4.33297C0.781949 4.53826 0.674316 4.81668 0.674316 5.107C0.674316 5.39732 0.781949 5.67575 0.973537 5.88103C1.16513 6.08632 1.42497 6.20165 1.69592 6.20165ZM5.78234 2.9177C6.18644 2.9177 6.58148 3.0461 6.91748 3.28667C7.25348 3.52723 7.51537 3.86915 7.67001 4.26919C7.82466 4.66924 7.86512 5.10943 7.78628 5.53411C7.70745 5.95879 7.51285 6.34889 7.2271 6.65507C6.94135 6.96125 6.57729 7.16976 6.18095 7.25423C5.7846 7.33871 5.37378 7.29535 5.00043 7.12965C4.62709 6.96395 4.30798 6.68334 4.08347 6.32331C3.85896 5.96328 3.73913 5.54 3.73913 5.107C3.73913 4.52636 3.95439 3.96951 4.33757 3.55893C4.72075 3.14836 5.24044 2.9177 5.78234 2.9177ZM30.3008 14.9588V14.9588C30.2158 14.9588 30.1423 14.9003 30.12 14.8182C29.8812 13.9371 29.3884 13.1578 28.7105 12.5932C27.9967 11.9987 27.1185 11.6759 26.2144 11.6759C25.3104 11.6759 24.4321 11.9987 23.7183 12.5932V12.5932C22.448 13.6513 21.106 14.9588 19.4527 14.9588H1.69592C1.42497 14.9588 1.16513 15.0742 0.973537 15.2795C0.781949 15.4847 0.674316 15.7632 0.674316 16.0535C0.674316 16.3438 0.781949 16.6222 0.973537 16.8275C1.16513 17.0328 1.42497 17.1481 1.69592 17.1481H11.9845H19.4527C21.106 17.1481 22.448 18.4557 23.7183 19.5138V19.5138C24.4321 20.1083 25.3104 20.4311 26.2144 20.4311C27.1185 20.4311 27.9967 20.1083 28.7105 19.5138C29.3884 18.9491 29.8812 18.1699 30.12 17.2888C30.1423 17.2067 30.2158 17.1481 30.3008 17.1481V17.1481C30.5718 17.1481 30.8316 17.0328 31.0232 16.8275C31.2148 16.6222 31.3224 16.3438 31.3224 16.0535C31.3224 15.7632 31.2148 15.4847 31.0232 15.2795C30.8316 15.0742 30.5718 14.9588 30.3008 14.9588ZM26.2144 18.2428C25.8103 18.2428 25.4153 18.1144 25.0793 17.8738C24.7433 17.6333 24.4814 17.2913 24.3267 16.8913C24.1721 16.4913 24.1316 16.0511 24.2105 15.6264C24.2893 15.2017 24.4839 14.8116 24.7696 14.5054C25.0554 14.1992 25.4195 13.9907 25.8158 13.9063C26.2121 13.8218 26.623 13.8651 26.9963 14.0308C27.3697 14.1965 27.6888 14.4772 27.9133 14.8372C28.1378 15.1972 28.2576 15.6205 28.2576 16.0535C28.2576 16.6341 28.0424 17.191 27.6592 17.6016C27.276 18.0121 26.7563 18.2428 26.2144 18.2428ZM30.3008 25.9053H22.7601C21.1068 25.9053 19.7648 24.5978 18.4944 23.5397V23.5397C17.7807 22.9452 16.9024 22.6224 15.9984 22.6224C15.0943 22.6224 14.2161 22.9452 13.5023 23.5397V23.5397C12.232 24.5978 10.8899 25.9053 9.23666 25.9053H1.69592C1.42497 25.9053 1.16513 26.0207 0.973537 26.2259C0.781949 26.4312 0.674316 26.7097 0.674316 27C0.674316 27.2903 0.781949 27.5687 0.973537 27.774C1.16513 27.9793 1.42497 28.0946 1.69592 28.0946H9.23666C10.8899 28.0946 12.232 29.4022 13.5023 30.4603V30.4603C14.2161 31.0548 15.0943 31.3775 15.9984 31.3775C16.9024 31.3775 17.7807 31.0548 18.4944 30.4603V30.4603C19.7648 29.4022 21.1068 28.0946 22.7601 28.0946H30.3008C30.5718 28.0946 30.8316 27.9793 31.0232 27.774C31.2148 27.5687 31.3224 27.2903 31.3224 27C31.3224 26.7097 31.2148 26.4312 31.0232 26.2259C30.8316 26.0207 30.5718 25.9053 30.3008 25.9053ZM15.9984 29.1893C15.5943 29.1893 15.1992 29.0609 14.8632 28.8203C14.5272 28.5797 14.2653 28.2378 14.1107 27.8378C13.9561 27.4377 13.9156 26.9975 13.9944 26.5729C14.0733 26.1482 14.2679 25.7581 14.5536 25.4519C14.8394 25.1457 15.2034 24.9372 15.5998 24.8527C15.9961 24.7683 16.4069 24.8116 16.7803 24.9773C17.1536 25.143 17.4727 25.4236 17.6972 25.7837C17.9217 26.1437 18.0416 26.567 18.0416 27C18.0416 27.5806 17.8263 28.1375 17.4431 28.548C17.06 28.9586 16.5403 29.1893 15.9984 29.1893Z" fill="black"/>
</svg>
